HIERARCHY
ROOT Hips
{
    OFFSET 0.000000 0.000000 0.000000
    CHANNELS 6 Xposition Yposition Zposition Zrotation Xrotation Yrotation
    JOINT Spine
    {
        OFFSET -0.000000 7.246840 0.000000
        CHANNELS 3 Zrotation Xrotation Yrotation
        JOINT Spine1
        {
            OFFSET -0.000000 20.289354 0.000000
            CHANNELS 3 Zrotation Xrotation Yrotation
            JOINT Neck
            {
                OFFSET -0.000000 20.206032 1.836912
                CHANNELS 3 Zrotation Xrotation Yrotation
                JOINT Head
                {
                    OFFSET -0.000000 12.372654 -1.767522
                    CHANNELS 3 Zrotation Xrotation Yrotation
                    End Site
                    {
                        OFFSET -0.000000 22.094025 0.000000
                    }
                }
            }
            JOINT LeftShoulder
            {
                OFFSET 3.465871 17.201674 -0.568930
                CHANNELS 3 Zrotation Xrotation Yrotation
                JOINT LeftArm
                {
                    OFFSET 14.070313 0.000000 0.000000
                    CHANNELS 3 Zrotation Xrotation Yrotation
                    JOINT LeftForeArm
                    {
                        OFFSET 26.549477 0.000000 0.000000
                        CHANNELS 3 Zrotation Xrotation Yrotation
                        JOINT LeftHand
                        {
                            OFFSET 18.880413 0.000000 0.000000
                            CHANNELS 3 Zrotation Xrotation Yrotation
                            End Site
                            {
                                OFFSET 13.256415 0.000000 0.000000
                            }
                        }
                    }
                }
            }
            JOINT RightShoulder
            {
                OFFSET -3.526370 17.201674 -0.568930
                CHANNELS 3 Zrotation Xrotation Yrotation
                JOINT RightArm
                {
                    OFFSET -14.070313 0.000000 0.000000
                    CHANNELS 3 Zrotation Xrotation Yrotation
                    JOINT RightForeArm
                    {
                        OFFSET -26.549477 0.000000 0.000000
                        CHANNELS 3 Zrotation Xrotation Yrotation
                        JOINT RightHand
                        {
                            OFFSET -18.880413 0.000000 0.000000
                            CHANNELS 3 Zrotation Xrotation Yrotation
                            End Site
                            {
                                OFFSET -13.256415 0.000000 0.000000
                            }
                        }
                    }
                }
            }
        }
    }
    JOINT LeftUpLeg
    {
        OFFSET 8.837609 0.000000 0.000000
        CHANNELS 3 Zrotation Xrotation Yrotation
        JOINT LeftLeg
        {
            OFFSET -0.000000 -41.345005 0.000000
            CHANNELS 3 Zrotation Xrotation Yrotation
            JOINT LeftFoot
            {
                OFFSET -0.000000 -35.500874 0.000000
                CHANNELS 3 Zrotation Xrotation Yrotation
                JOINT LeftToeBase
                {
                    OFFSET -0.000000 -5.744446 13.256415
                    CHANNELS 3 Zrotation Xrotation Yrotation
                    End Site
                    {
                        OFFSET -0.000000 0.000000 3.535044
                    }
                }
            }
        }
    }
    JOINT RightUpLeg
    {
        OFFSET -8.837609 0.000000 0.000000
        CHANNELS 3 Zrotation Xrotation Yrotation
        JOINT RightLeg
        {
            OFFSET -0.000000 -41.345005 0.000000
            CHANNELS 3 Zrotation Xrotation Yrotation
            JOINT RightFoot
            {
                OFFSET -0.000000 -35.500874 0.000000
                CHANNELS 3 Zrotation Xrotation Yrotation
                JOINT RightToeBase
                {
                    OFFSET -0.000000 -5.744446 13.256415
                    CHANNELS 3 Zrotation Xrotation Yrotation
                    End Site
                    {
                        OFFSET -0.000000 0.000000 3.535044
                    }
                }
            }
        }
    }
}
MOTION
Frames:    13
Frame Time:    0.010000
3.431261    82.352570    -69.462128    3.741148    3.025839    -0.620313    -4.767156    -15.730498    -1.111550    2.602443    2.416522    -0.507636    -0.158662    34.666542    -2.246341    0.933246    -9.062962    -2.161371    18.976980    2.590122    8.003055    -28.443716    10.244956    -11.149782    5.752085    -9.150736    -11.367869    -30.590137    -7.782765    -2.961512    -15.720847    1.936854    11.560485    20.296642    7.646728    9.490190    -2.750907    -7.677140    1.374137    11.225015    -6.065612    16.074850    -3.439998    7.148636    -0.854690    -2.257755    -9.149461    -6.099595    4.980881    1.544624    -0.190630    0.871065    -1.237397    -1.228575    -7.695796    6.157891    3.245463    7.864553    -10.363245    3.600531    -2.380152    0.179166    -9.687567    0.222209    -4.112316    -0.417380    
3.441178    82.352188    -69.452621    3.735936    3.024339    -0.598471    -4.764534    -15.750304    -1.122815    2.613858    2.439947    -0.519206    -0.184493    34.659676    -2.236953    0.958920    -9.055212    -2.150757    18.974798    2.577753    8.014620    -28.440809    10.274064    -11.163377    5.746557    -9.160069    -11.375801    -30.551216    -7.796357    -2.950367    -15.729365    1.931141    11.570007    20.309780    7.621259    9.497363    -2.721614    -7.699495    1.371543    11.110220    -6.103945    16.082987    -3.441563    7.161275    -0.877218    -2.227869    -9.173723    -6.209515    4.932518    1.578755    -0.133797    0.858573    -1.279186    -1.211266    -7.699668    6.180822    3.231497    7.865524    -10.387509    3.621697    -2.390829    0.141102    -9.738667    0.194177    -4.049860    -0.364458    
3.446829    82.352570    -69.452911    3.736161    3.021356    -0.597375    -4.777146    -15.746907    -1.125052    2.635789    2.445405    -0.520295    -0.203179    34.636951    -2.219493    0.984782    -9.031796    -2.130514    18.962568    2.592553    8.015207    -28.431276    10.258271    -11.172913    5.746921    -9.165552    -11.399980    -30.508722    -7.804938    -2.938641    -15.729834    1.925459    11.575943    20.318792    7.604303    9.506051    -2.724311    -7.701809    1.356793    11.077223    -6.105926    16.137093    -3.453199    7.162493    -0.844677    -2.233660    -9.164293    -6.137177    4.954359    1.560030    -0.210995    0.849706    -1.261219    -1.198626    -7.699856    6.185643    3.231410    7.859032    -10.388482    3.608014    -2.375272    0.176170    -9.703224    0.215401    -4.109302    -0.404577    
3.453109    82.352982    -69.452721    3.733155    3.020709    -0.592492    -4.786091    -15.741210    -1.132018    2.658693    2.441505    -0.526852    -0.227074    34.624802    -2.202553    1.003038    -9.016140    -2.113401    18.961451    2.593495    8.023536    -28.437700    10.233140    -11.178696    5.738108    -9.132169    -11.408182    -30.475956    -7.771154    -2.944802    -15.732984    1.908726    11.590397    20.326986    7.607009    9.500711    -2.733534    -7.676190    1.377139    11.091037    -6.077947    16.134239    -3.443126    7.160871    -0.884514    -2.249211    -9.159756    -6.120135    4.967300    1.560550    -0.185752    0.871013    -1.265737    -1.228714    -7.696204    6.187971    3.206360    7.852767    -10.389444    3.608042    -2.342321    0.155086    -9.712854    0.203746    -4.086803    -0.382584    
3.461812    82.352028    -69.453369    3.734250    3.018348    -0.589045    -4.790747    -15.735681    -1.134505    2.669071    2.444187    -0.529024    -0.230056    34.606068    -2.216456    1.003177    -8.992951    -2.128558    18.956535    2.595605    8.036686    -28.430431    10.228677    -11.197734    5.742083    -9.166168    -11.391433    -30.423071    -7.783221    -3.033682    -15.727031    1.896137    11.589556    20.325430    7.607198    9.512580    -2.742874    -7.653812    1.385463    11.085543    -6.054624    16.147884    -3.458837    7.160968    -0.854005    -2.222912    -9.162042    -6.220579    4.909883    1.575165    -0.162813    0.838647    -1.303796    -1.183334    -7.701997    6.193654    3.204190    7.856157    -10.396309    3.558187    -2.398527    0.144576    -9.665296    0.195775    -4.059862    -0.367502    
3.468821    82.352310    -69.453316    3.725129    3.017995    -0.584791    -4.787915    -15.731428    -1.136103    2.682572    2.438467    -0.531503    -0.213186    34.594254    -2.196559    0.975363    -8.972898    -2.110950    18.957058    2.592366    8.029204    -28.420158    10.270433    -11.189201    5.735446    -9.136005    -11.447922    -30.371077    -7.759093    -3.008184    -15.726871    1.897094    11.594168    20.325243    7.613529    9.517118    -2.750961    -7.619949    1.407842    11.083164    -6.021145    16.139885    -3.452619    7.162450    -0.866134    -2.209226    -9.170698    -6.274984    4.922114    1.572890    -0.135194    0.827263    -1.296410    -1.167219    -7.697291    6.195663    3.198482    7.851629    -10.396611    3.600098    -2.368426    0.157640    -9.705822    0.198789    -4.084887    -0.373268    
3.475486    82.351349    -69.453926    3.723616    3.018224    -0.581424    -4.800975    -15.723765    -1.140667    2.704970    2.429580    -0.534878    -0.222209    34.585987    -2.196320    0.976844    -8.957820    -2.112161    18.948296    2.586819    8.029202    -28.393888    10.304779    -11.191635    5.803868    -9.099557    -11.367964    -30.556637    -7.686004    -3.113665    -15.724397    1.902700    11.590047    20.307106    7.656645    9.532692    -2.757723    -7.611184    1.421606    11.099904    -6.005914    16.176838    -3.450447    7.161200    -0.871564    -2.239903    -9.162989    -6.212632    4.948016    1.566913    -0.138782    0.866107    -1.293872    -1.222005    -7.700397    6.198328    3.198553    7.847660    -10.405208    3.592742    -2.369956    0.170010    -9.696254    0.210387    -4.065674    -0.394957    
3.482992    82.351280    -69.453934    3.715882    3.015976    -0.580849    -4.798025    -15.717425    -1.142850    2.718652    2.425408    -0.537821    -0.216596    34.591103    -2.191573    0.957394    -8.963840    -2.110389    18.938972    2.591626    8.035501    -28.362518    10.351721    -11.206104    5.811472    -9.147842    -11.370356    -30.597300    -7.715295    -3.176783    -15.732222    1.903605    11.597062    20.302588    7.711861    9.533585    -2.767390    -7.626940    1.457004    11.111916    -6.018286    16.184467    -3.453039    7.166747    -0.860535    -2.227406    -9.166800    -6.223999    4.941759    1.560501    -0.153264    0.841821    -1.272840    -1.187587    -7.696530    6.202022    3.210260    7.851919    -10.401912    3.574820    -2.360724    0.142483    -9.701044    0.206417    -4.050496    -0.387434    
3.491426    82.350830    -69.454376    3.714001    3.014058    -0.581291    -4.797882    -15.712512    -1.139449    2.720458    2.421921    -0.534585    -0.198463    34.592228    -2.192896    0.939543    -8.962942    -2.112401    18.959362    2.574936    8.027773    -28.360804    10.426003    -11.202927    5.827610    -9.202369    -11.387201    -30.644878    -7.751376    -3.231186    -15.734671    1.908422    11.594512    20.303978    7.757439    9.532491    -2.781216    -7.672641    1.491582    11.132076    -6.058529    16.201860    -3.454605    7.170008    -0.866467    -2.229120    -9.173687    -6.229964    4.947745    1.563637    -0.150146    0.848831    -1.277712    -1.197512    -7.701731    6.203862    3.203355    7.845527    -10.408696    3.612483    -2.365267    0.147537    -9.736738    0.195705    -4.033681    -0.367257    
3.498734    82.349678    -69.455673    3.709016    3.016659    -0.577136    -4.801490    -15.707673    -1.142809    2.728737    2.412180    -0.537600    -0.198111    34.612366    -2.192123    0.948596    -8.985099    -2.109400    18.961637    2.605489    8.024039    -28.345163    10.400680    -11.217715    5.817766    -9.256328    -11.416330    -30.696651    -7.797303    -3.253838    -15.729916    1.928984    11.598614    20.290682    7.762558    9.527142    -2.795833    -7.699743    1.555717    11.194378    -6.075887    16.193579    -3.454346    7.169377    -0.859683    -2.253849    -9.168674    -6.125739    4.993239    1.540841    -0.206515    0.878312    -1.224814    -1.238700    -7.699183    6.201019    3.204621    7.851421    -10.399650    3.580111    -2.335731    0.163690    -9.687881    0.214468    -4.087054    -0.402719    
3.502564    82.349861    -69.457230    3.702203    3.015740    -0.575727    -4.822189    -15.706568    -1.148566    2.775084    2.422382    -0.541859    -0.208033    34.595932    -2.189813    0.928303    -8.972196    -2.113313    18.950897    2.586470    8.025612    -28.347837    10.394995    -11.213876    5.820898    -9.273914    -11.446386    -30.733131    -7.811874    -3.254432    -15.753437    1.928243    11.588228    20.290667    7.752124    9.546717    -2.791257    -7.715314    1.569919    11.184686    -6.091791    16.201832    -3.452851    7.166990    -0.852889    -2.235301    -9.173605    -6.198877    4.964405    1.544563    -0.184765    0.850334    -1.259944    -1.199502    -7.695272    6.199934    3.221012    7.845067    -10.398543    3.602317    -2.374838    0.162614    -9.743557    0.189808    -4.071339    -0.356348    
3.513409    82.349609    -69.457832    3.696662    3.016380    -0.576594    -4.807680    -15.701032    -1.147640    2.760185    2.416897    -0.542655    -0.206299    34.605247    -2.181546    0.938637    -8.991340    -2.102021    18.960571    2.608377    8.034910    -28.339651    10.364260    -11.227952    5.811882    -9.258741    -11.494007    -30.745516    -7.802528    -3.225857    -15.740482    1.936180    11.591550    20.279440    7.756146    9.543481    -2.794643    -7.706977    1.604667    11.189260    -6.082103    16.199806    -3.459711    7.168427    -0.833537    -2.225551    -9.177382    -6.202639    4.960422    1.545471    -0.213855    0.832463    -1.271457    -1.174376    -7.697203    6.194947    3.206332    7.844492    -10.387953    3.620639    -2.342682    0.137131    -9.748096    0.204531    -4.058551    -0.383931    
3.519408    82.349503    -69.461121    3.692631    3.018636    -0.573227    -4.816823    -15.694513    -1.153849    2.779963    2.415228    -0.548370    -0.225665    34.592918    -2.175127    0.944708    -8.981259    -2.097631    18.958284    2.615621    8.034089    -28.322741    10.385523    -11.222154    5.809687    -9.254347    -11.535083    -30.748251    -7.800431    -3.210238    -15.746059    1.948123    11.587022    20.265303    7.726048    9.566420    -2.789994    -7.677593    1.610894    11.172937    -6.056001    16.188234    -3.457298    7.164978    -0.847579    -2.245784    -9.173664    -6.141543    5.005870    1.538742    -0.213432    0.865822    -1.244996    -1.221237    -7.694429    6.191273    3.221791    7.836983    -10.397326    3.580944    -2.326062    0.173394    -9.702275    0.217723    -4.088524    -0.408839    
